<?xml version="1.0" encoding="utf-8"?>
<!-- Generator: Adobe Illustrator 21.0.2, SVG Export Plug-In . SVG Version: 6.00 Build 0)  -->
<svg version="1.1" id="Layer_1" xmlns="http://www.w3.org/2000/svg" xmlns:xlink="http://www.w3.org/1999/xlink" x="0px" y="0px"
	 viewBox="0 0 995 295" style="enable-background:new 0 0 995 295;" xml:space="preserve">
<style type="text/css">
	.st0{fill:#083A48;}
	.st1{fill:#BF2026;}
	.st2{fill:#125C6D;}
	.st3{fill:url(#SVGID_1_);}
	.st4{fill:url(#SVGID_2_);}
	.st5{fill:url(#SVGID_3_);}
	.st6{fill:url(#SVGID_4_);}
	.st7{fill:#FFFFFF;}
	.st8{fill:#1C9CB3;}
	.st9{fill:url(#SVGID_5_);}
	.st10{fill:url(#SVGID_6_);}
	.st11{fill:url(#SVGID_7_);}
	.st12{fill:url(#SVGID_8_);}
	.st13{fill:url(#SVGID_9_);}
</style>
<g>
	<g>
		<g>
			<path class="st0" d="M464.5,247.9c-1.6-3.8-1.9-4.6-2.1-5.8H456c-0.3,1.4-0.8,2.9-2,5.8l-14,34.6c-1.7,4.2-2.1,5.1-3.4,7.2h6.5
				c0.4-2.2,1-4,1.9-6.4l3.3-8.1h21.8l3.3,8.1c0.8,1.9,1.4,4.1,1.9,6.4h6.4c-0.9-1.6-1.8-3.4-3.3-7.2L464.5,247.9z M449.8,270.8
				l8-20.7c0.1-0.2,0.3-0.9,0.7-1.9c0.1-0.4,0.4-1.1,0.7-2.1c1.2,3.4,1.2,3.5,1.4,4l8.1,20.7H449.8z"/>
			<path class="st0" d="M518.6,242h-5.5c0.3,2.4,0.4,4.2,0.4,7.1v8.4c0,1.4,0,2,0.2,3.3l0.1,0.9c-2.8-4.3-7.1-6.6-12.8-6.6
				c-9.4,0-15.4,6.8-15.4,17.5c0,10.9,5.9,17.5,15.5,17.5c5.7,0,9.8-2.2,12.7-6.8c-0.1,1.1-0.2,2.2-0.2,3.1v3.1h5
				c-0.3-2.4-0.4-4.1-0.4-7.2v-33.3C518.2,246.4,518.3,244.6,518.6,242z M501.5,286.1c-3.5,0-6.5-1.3-8.4-3.8
				c-1.6-2.1-2.6-5.6-2.6-9.8c0-8.3,4.1-13.3,11-13.3c3.3,0,6.3,1.2,8.5,3.3c2.3,2.2,3.5,5.8,3.5,10
				C513.5,280.8,508.8,286.1,501.5,286.1z"/>
			<path class="st0" d="M548.7,262l-7.1,18.5c-0.6,1.4-0.9,2.4-1.4,4c-0.4-1.3-1.1-3.3-1.4-4.1l-7.1-18.4c-1-2.4-1.6-4.5-1.9-6.1
				h-5.9c1.3,2.8,1.9,4.1,3.1,6.9l8.7,21.1c1.3,3.1,1.7,4.2,2.1,5.8h4.9c0.4-1.9,0.6-2.3,2-5.8l8.8-21.1c2.1-4.9,2.3-5.4,3.1-6.9
				h-5.9C550.3,257.6,549.8,259.2,548.7,262z"/>
			<path class="st0" d="M590.7,268.6c-1.3-8.4-7.1-13.6-15.1-13.6c-9.4,0-15.5,7-15.5,17.7c0,10.8,6.2,17.7,16,17.7
				c4.6,0,8.4-1.5,11.3-4.4c1.4-1.4,2.3-2.6,3.4-5.2l-4.4-1.8c-1.8,4.8-5.3,7.3-10.3,7.3c-3.8,0-6.8-1.5-8.8-4.3
				c-1.7-2.3-2.3-4.6-2.5-8.8h26.4C591,271.8,590.8,269.3,590.7,268.6z M565,269.5c0.4-2.4,0.7-3.5,1.6-5.1c1.9-3.5,5.1-5.4,8.9-5.4
				c3,0,5.4,0.9,7.4,2.8c2,1.9,2.9,4.2,3.3,7.7H565z"/>
			<path class="st0" d="M627.8,267.2c0-3.1-0.6-5.4-1.8-7.2c-2-3.1-5.5-4.7-10-4.7c-5.6,0-9.7,2.4-12.6,7.6c0.2-1.4,0.2-1.9,0.2-2.7
				v-4.3h-5.2c0.4,2.5,0.5,4.3,0.5,7.1v19.6c0,3-0.1,4.7-0.5,7.1h5.6c-0.3-2.4-0.4-4.3-0.4-7.1v-12.1c0.5-2.5,1.3-4.1,2.9-6.2
				c2.6-3.4,5.4-4.9,8.9-4.9c4.9,0,7.6,3,7.6,8.6v14.6c0,2.8-0.1,4.6-0.4,7.1h5.6c-0.3-2.1-0.4-3.8-0.4-7V267.2z"/>
			<path class="st0" d="M650.1,286.1c-1.3,0-2.4-0.4-3.1-1.1c-0.6-0.6-0.8-1.5-0.8-3.3v-21.8h3c2.8,0,4.4,0.1,6.4,0.4v-4.8
				c-2.2,0.3-3.5,0.4-6.4,0.4h-3v-2.4c0-2.7,0.1-4.9,0.4-6.9H641c0.3,2.1,0.4,4.4,0.4,6.9v2.4H639c-2.6,0-3.9-0.1-5.6-0.4v4.8
				c2.1-0.2,3.5-0.4,5.6-0.4h2.5v22.4c0,2.9,0.5,4.8,1.8,6c1.3,1.3,3.4,1.9,6.1,1.9c2.6,0,4.5-0.4,7.1-1.4l-1.4-4.4
				C653,285.7,651.7,286.1,650.1,286.1z"/>
			<path class="st0" d="M690.9,263c0-2.9,0.1-4.9,0.4-7.1h-5.6c0.3,2.2,0.4,4.4,0.4,7.1V275c-0.6,2.5-1.3,4.1-2.9,6.3
				c-2.5,3.4-5.4,4.9-9,4.9c-4.9,0-7.6-3.1-7.6-8.7V263c0-2.8,0.1-4.9,0.4-7.1h-5.6c0.3,2,0.4,4.2,0.4,7v15.5c0,3,0.6,5.4,1.8,7.3
				c2,3,5.5,4.6,10,4.6c5.6,0,9.5-2.3,12.6-7.4c-0.2,1.6-0.2,2.1-0.2,2.8v4.1h5.2c-0.4-2.5-0.5-4.3-0.5-7.1V263z"/>
			<path class="st0" d="M708.9,257.5c-1.3,0.9-2.3,1.9-3.4,3.8c0.1-0.4,0.1-1.4,0.1-1.9v-3.6h-5.2c0.3,2.3,0.4,3.9,0.4,7.1v19.6
				c0,2.6-0.1,4.2-0.4,7.1h5.6c-0.3-2.4-0.4-4.2-0.4-7v-12.8c0.3-2.8,0.8-4.3,2.3-6.3c1.9-2.5,4.5-3.8,7.7-3.8
				c1.6,0,2.7,0.2,5.1,0.9l1.4-4.8c-2.6-0.4-3.7-0.6-5.6-0.6C713.4,255.3,711.2,255.9,708.9,257.5z"/>
			<path class="st0" d="M756.3,268.6c-1.3-8.4-7.1-13.6-15.1-13.6c-9.4,0-15.5,7-15.5,17.7c0,10.8,6.2,17.7,16,17.7
				c4.6,0,8.4-1.5,11.3-4.4c1.4-1.4,2.3-2.6,3.4-5.2l-4.4-1.8c-1.8,4.8-5.3,7.3-10.3,7.3c-3.8,0-6.8-1.5-8.8-4.3
				c-1.7-2.3-2.3-4.6-2.5-8.8h26.4C756.6,271.8,756.4,269.3,756.3,268.6z M730.6,269.5c0.4-2.4,0.7-3.5,1.6-5.1
				c1.9-3.5,5.1-5.4,8.9-5.4c3,0,5.4,0.9,7.4,2.8c2,1.9,2.9,4.2,3.3,7.7H730.6z"/>
		</g>
		<g>
			<path class="st1" d="M809.1,247.9c-1.6-3.8-1.9-4.6-2.1-5.8h-6.3c-0.3,1.4-0.8,2.9-2,5.8l-14,34.6c-1.7,4.2-2.1,5.1-3.4,7.2h6.5
				c0.4-2.2,1-4,1.9-6.4l3.3-8.1h21.8l3.3,8.1c0.8,1.9,1.4,4.1,1.9,6.4h6.4c-0.9-1.6-1.8-3.4-3.3-7.2L809.1,247.9z M794.5,270.8
				l8-20.7c0.1-0.2,0.3-0.9,0.7-1.9c0.1-0.4,0.4-1.1,0.7-2.1c1.2,3.4,1.2,3.5,1.4,4l8.1,20.7H794.5z"/>
			<path class="st1" d="M867.8,262.7l-4.7,15.9c-0.1,0.4-0.4,1.8-1,4.3c-0.1-0.4-0.1-0.4-0.4-1.4c-0.2-0.9-0.6-2.3-0.8-2.8l-6-18
				c-0.6-1.9-1.1-3.6-1.3-4.8h-4.2c-0.1,1.1-0.6,2.9-1.3,4.8l-5.9,17.7c-0.2,0.6-0.9,3.1-1.3,4.5c-0.4-2.2-0.8-3.5-1.1-4.6
				l-4.6-15.6c-0.9-2.8-1.3-4.9-1.4-6.8H828c0.7,2.1,1.8,5.1,2.5,7.4l6.7,21.6c1,3.1,1,3.2,1.4,4.8h4.4c0.2-1.1,0.7-2.9,1.3-4.7
				l6.1-18.1c0.2-0.6,0.7-2.3,1.2-4.1c0.6,2.3,0.9,3.6,1.1,3.9l6.1,18.2c0.6,1.8,1,3.4,1.3,4.7h4.3c0.2-1.3,0.5-2.2,1.3-4.7
				l6.8-21.7c1.1-3.6,1.9-6.1,2.4-7.4h-5.7C869,257.7,868.6,260,867.8,262.7z"/>
			<path class="st1" d="M906.8,265.1c0-6.8-4.3-10.3-12.5-10.3c-4.7,0-8.5,1.2-11,3.6c-1.6,1.4-2.4,2.7-3.5,5.6l4.9,1.1
				c0.6-1.9,1.1-2.8,1.9-3.6c1.8-1.8,4.3-2.7,7.8-2.7c5.2,0,7.9,2.2,7.9,6.4v3.6c-7.7,0.2-10.7,0.6-14.4,1.6c-5.8,1.6-9,5.3-9,10.3
				c0,5.9,4.2,9.5,11.1,9.5c2.1,0,4.4-0.4,6.5-1.3c2.1-0.8,3.3-1.6,5.8-3.8v4.4h5.1c-0.4-2.5-0.5-4.1-0.5-6.9V265.1z M902.2,276.6
				c0,2.5-0.5,3.8-1.9,5.4c-2.4,2.7-6.4,4.4-10,4.4c-4.1,0-6.6-2.2-6.6-5.6c0-3,1.6-5.1,4.8-6.4c2.8-1.2,6.4-1.6,13.8-1.8V276.6z"/>
			<rect x="915.9" y="242" class="st1" width="6.1" height="5.6"/>
			<path class="st1" d="M921.7,255.9h-5.6c0.3,2.2,0.4,4.1,0.4,7.1v19.6c0,2.6-0.1,4.4-0.4,7.1h5.6c-0.3-2.4-0.4-4.2-0.4-7.1V263
				C921.3,259.8,921.4,258.1,921.7,255.9z"/>
			<path class="st1" d="M943.8,286.1c-1.3,0-2.4-0.4-3.1-1.1c-0.6-0.6-0.8-1.5-0.8-3.3v-21.8h3c2.8,0,4.4,0.1,6.4,0.4v-4.8
				c-2.2,0.3-3.5,0.4-6.4,0.4h-3v-2.4c0-2.7,0.1-4.9,0.4-6.9h-5.6c0.3,2.1,0.4,4.4,0.4,6.9v2.4h-2.5c-2.6,0-3.9-0.1-5.6-0.4v4.8
				c2.1-0.2,3.5-0.4,5.6-0.4h2.5v22.4c0,2.9,0.5,4.8,1.8,6c1.3,1.3,3.4,1.9,6.1,1.9c2.6,0,4.5-0.4,7.1-1.4l-1.4-4.4
				C946.7,285.7,945.5,286.1,943.8,286.1z"/>
			<path class="st1" d="M968.9,270.1c-3.9-0.8-5.5-1.3-6.9-2.1c-1.4-0.8-2.1-2-2.1-3.4c0-3.3,3.3-5.6,7.8-5.6c2.8,0,5.1,0.8,6.5,2.4
				c0.9,0.9,1.2,1.6,1.6,3.3l4.9-0.8c-0.8-2.9-1.7-4.3-3.3-5.7c-2.3-2-5.6-3-9.8-3c-4.2,0-7.6,1.1-9.8,3.3c-1.8,1.7-2.7,3.8-2.7,6.1
				c0,2.8,1.2,5.1,3.4,6.6c2.1,1.4,4.3,2.2,9.3,3.3c4.6,0.9,5.9,1.3,7.4,2.3c1.3,0.8,1.9,2.1,1.9,3.9c0,3.7-3.4,6-8.9,6
				c-3.2,0-5.7-0.8-7.3-2.2c-1.3-1.1-1.8-2.3-2.2-4.6l-5.1,0.9c0.6,2.6,1.1,3.6,2,4.9c2.3,3.2,6.7,4.9,12.4,4.9
				c8.6,0,13.9-3.9,13.9-10.1c0-2.6-1.1-4.9-3-6.5C977,272.2,975,271.5,968.9,270.1z"/>
		</g>
	</g>
	<g>
		<g>
			<path class="st0" d="M237.1,188.3v-23.7h30.4c9.7,0,14.5,0.3,21.1,1v-26.1c-8.5,0.8-11.8,1-21.1,1h-30.4v-20.7h36.6
				c9.4,0,14.5,0.3,21,1V94.4c-6.6,0.7-11.4,1-21,1h-44.9c-11,0-14.9-0.1-20.7-0.4c0.8,6.9,1.1,11.8,1.1,20.6v76.9
				c0,9.7-0.3,14.9-1.1,20.6c6.1-0.3,10-0.4,20.7-0.4h44.4c12.1,0,17.2,0.3,23.3,1v-26.3c-6.1,0.7-12.3,1-23,1H237.1z"/>
			<path class="st0" d="M385.6,110.6l-20.4,67.8c-0.7,2.7-1,3.5-2.7,9.7c-1.5-5.9-1.5-5.9-2.7-9.7l-20.4-67.8
				c-1.5-5.2-2.8-10.7-3.4-15.2h-33c2.4,5.5,3.8,9,6.6,17.2l30,84.8c2.4,6.8,3.8,11.6,4.5,15.2h36.6c0.7-3.5,2.1-8.3,4.5-15.2
				l29.9-84.8c3.5-9.7,4.8-13,6.8-17.2h-33.1C388.5,100.2,387.5,104.2,385.6,110.6z"/>
			<path class="st0" d="M431.7,213.1c6.1-0.3,10-0.4,20.7-0.4h44.4c12.1,0,17.2,0.3,23.3,1v-26.3c-6.1,0.7-12.3,1-23,1h-36.4v-23.7
				h30.4c9.7,0,14.5,0.3,21.1,1v-26.1c-8.5,0.8-11.8,1-21.1,1h-30.4v-20.7h36.6c9.4,0,14.5,0.3,21,1V94.4c-6.6,0.7-11.4,1-21,1
				h-44.9c-11,0-14.9-0.1-20.7-0.4c0.8,6.9,1.1,11.8,1.1,20.6v76.9C432.8,202.2,432.5,207.4,431.7,213.1z"/>
			<path class="st0" d="M598.6,190.7c4.4,11.7,6.1,17.5,6.9,22h33c-3.5-7.5-5.2-11-6.8-14.9c-6.3-15.2-8.3-20-10.4-24.5
				c-4.5-10-7.7-13.2-14.9-15.5c6.9-2.3,9.9-3.8,13.4-7c5.5-5.2,8.3-13.1,8.3-23.1c0-20.3-13.2-32.1-36.1-32.1h-36.6
				c-9.6,0-14.8-0.1-21-0.4c0.8,6.8,1.1,12,1.1,20.7v75.8c0,10.4-0.3,14.7-1.1,21.1h30.3c-0.8-6.5-1.1-11.7-1.1-21.3v-23.1h14.4
				c4.5,0,8,1.1,11,3.8C592.4,175.2,594.1,178.4,598.6,190.7z M585.5,144.2h-22v-25.1h22.1c8.7,0,13.2,4.1,13.2,12
				C598.9,139.1,593.8,144.2,585.5,144.2z"/>
		</g>
		<g>
			<path class="st0" d="M775,213.1c6.1-0.3,10-0.4,20.7-0.4h44.4c12.1,0,17.2,0.3,23.2,1v-26.3c-6.1,0.7-12.3,1-23,1H804v-23.7h30.4
				c9.7,0,14.5,0.3,21.1,1v-26.1c-8.5,0.8-11.8,1-21.1,1H804v-20.7h36.6c9.4,0,14.5,0.3,21,1V94.4c-6.6,0.7-11.4,1-21,1h-44.9
				c-11,0-14.9-0.1-20.7-0.4c0.8,6.9,1.1,11.8,1.1,20.6v76.9C776.1,202.2,775.8,207.4,775,213.1z"/>
			<path class="st0" d="M906.4,197.4l3.8-12h40.2l3.8,12c1.4,4.8,2.3,8.5,3.4,15.2h33c-1.8-3.9-4.1-9.7-6.8-17.2l-30.6-84.8
				c-2.8-7.5-3.8-11.1-4.8-15.2h-36.8c-0.7,4.1-2,8.3-4.5,15.2l-30.4,84.8c-3.4,9.6-4.6,13-6.8,17.2h33
				C903.6,207.4,904.6,203.1,906.4,197.4z M930.1,119.5l13.4,42.3H917L930.1,119.5z"/>
			<path class="st0" d="M647.8,212c7.6-4.9,8.6-12.3,10.1-19.5c1.2-5.5,4.8-9,9.2-11.5c-1.6-3-3.6-5.9-4.7-9.1
				c-0.8-2.7-0.9-5.8-0.5-8.6c0.8-6.5,0.5-12.6-3.8-18c2.9-0.5,8,1.2,11.5,3.5c6.7,4.4,9.2,11,10.2,18.6c0.6,4.7,2.3,9.3,5.8,12.5
				c5,4.5,10.4,8.7,17.2,10.1c7.2,1.5,14.3,3.3,21.6,0.3c5.1-2.1,8.5-6.1,8.5-11.3c0.1-5.2-2.8-9.1-8.3-11c-2-0.7-4.1-1.3-6.1-1.8
				c-8.4-2.1-17-3.9-25.3-6.4c-15.6-4.8-24.1-17.3-23.4-33.7c0.6-12.6,6.6-22.1,17.8-27.3c18.3-8.5,37.1-8.6,55.3,0.6
				c10.3,5.2,15.6,14.6,17.7,26.2c-2.1,0.3-4.1,0.5-6.1,0.8c-7,0.8-14.1,1.5-21.1,2.3c-1.6,0.2-2.4-0.2-2.9-1.9
				c-1.5-5.9-5.3-9.5-11.4-10.2c-3.5-0.4-7.2-0.4-10.6,0.2c-5.6,0.9-9.5,5.2-9.8,10c-0.3,4.5,3,8.7,8.8,10.2
				c5.5,1.5,11.1,2.6,16.7,3.8c7.6,1.6,15.1,3.4,22,7.3c8.8,5,14.4,12.4,15.9,22.6c1.3,8.8,0.5,17.4-3.8,25.4
				c-5,9.4-13.5,14.3-23.3,16.9c-9.9,2.7-20.1,2.9-30.2,1.4c-7-1-13.2-4-18.2-9.5c-2.7-2.9-5.2-6.4-9.8-7c-1.5-0.2-2-0.1-2.6,1.3
				c-4.4,9.8-13.7,14.8-24.3,13.3C649.4,212.4,649.1,212.3,647.8,212z"/>
		</g>
	</g>
	<g>
		<g>
			<path class="st1" d="M169.7,159.5v-51.6c0-10.6,0.3-17,1.3-26.4h-31.3v38.3v21.6v18.5H74v26.8c5.9-0.5,10.3-0.6,20.7-0.6h44.9
				v7.8c0,7.8-0.5,14.4-1.3,19.8H171c-1-6-1.3-10.6-1.3-19.5v-7.9h4.8c4.9,0,10.8,0.3,15.6,1v-28.9c-5.6,0.8-10.8,1.3-15.7,1.3
				H169.7z"/>
			<polygon class="st0" points="132,151.2 132,81.5 74,151.2 			"/>
		</g>
		<g>
			<path class="st2" d="M59.7,136.9l-1.8,5.2c4.4,10.4,3.8,13.2,3.6,13.6c0,0.1,0,0.1,0,0.1s-0.2,0-0.6,0c-0.9-0.2-2.8-1-6.5-3.7
				l-1.3,3.7c-4.5,21.2,0.2,38.9,1.7,43.6c0.2,0.7,0.4,1.1,0.4,1.2l0.2,0.4l0.3,0.3c5.1,4.4,12.2,5.2,17.2,5.1c0,0,2.7-0.1,1.3,1.7
				c0,0,0,0,0,0.1c0,0,0,0,0,0.1c-1.4,2.1-3.2,4.2-5.3,5.5l-0.5,0.3c0,0-0.5,0.2-0.4,1l0,0.5c0.2,2.6,0.3,5.8,0.1,8.7
				c0,0.1,0,0.3,0,0.5c0,0.2,0,0.3,0,0.5c-0.4,2-2.4-0.4-3-1.1l-0.1-0.2l-11.7-15.2l-0.2-0.1c-2.9-2.2-5.8-4.9-8.7-8
				c-1.5-1.6-2.9-3.3-4.4-5.1c-8.7-10.9-15.8-25.1-17.2-40.1l-0.1-1.5l-1.5-0.1c-0.4,0-0.8,0-1.2,0c-3.5,0-6.4,1.3-8.7,2.6
				c-2.5,1.3-2.5-1.5-2.5-1.5c0.5-2.7,1.3-5.2,2.3-7.6c4.1-9.6,11-14.3,14.8-16.2l0.6-0.3l0.3-0.6c0.9-1.9,1.9-3.8,3-5.7
				c7.6-12.5,16.2-18.2,23.6-20.6c10.4-3.4,18.6-0.2,18.8-0.2l0.7,0.3l0.7-0.3c5.6-2.6,8.5-3.3,9.9-3.4c0.7-0.1,1.1,0,1.2,0.1
				c0,0.2,0,0.7-0.5,2c-1.7,4.1-7,10.3-9.5,13.2c-0.9,1-1.4,1.6-1.4,1.6C67.6,123.3,63.1,129.9,59.7,136.9z"/>
			<path class="st2" d="M105.2,84.8c-0.1,0.1-0.6,0.3-1.7,0.4c-5,0.3-15.1-2.7-15.2-2.8c-6.6-1.9-13.2-2.8-19.7-2.8l-4.6,0.6
				c-6.2,7.2-8.5,7.8-8.9,7.8c-0.1,0-0.1,0-0.1,0s-0.1-0.1-0.2-0.4c-0.2-0.7-0.3-2.5,0.4-6.2L52,81.7c-5.7,1.4-10.8,3.4-15.1,5.6
				C25.7,92.9,19.3,99.5,19,99.9l-0.3,0.3l-0.1,0.4c-1.5,5.4,0.6,11.1,2.5,14.9c0,0,1.1,2-0.8,1.7c0,0,0,0-0.1,0h-0.1
				c-2.1-0.3-4.4-0.9-6.1-2l-0.4-0.3c0,0-0.3-0.3-0.9,0.1l-0.4,0.2c-1.9,1.1-4.2,2.3-6.5,3.2c-0.1,0-0.2,0.1-0.4,0.2
				c-0.1,0-0.2,0.1-0.4,0.1c-1.7,0.5-0.6-1.9-0.3-2.6l0.1-0.2l7.1-14.4l0-0.2c0.3-1.4,0.7-2.9,1.1-4.4c2.6-8.9,7.7-18.9,15.1-27.3
				c3.7-4.2,7.9-7.9,12.7-10.9l1.1-0.7l-0.5-1.2c-1.2-3.1-3.5-5.1-5.6-6.5c-1.9-1.4,0.2-2.4,0.2-2.5c2.2-0.6,4.4-1,6.6-1.1
				c8.8-0.5,14.8,3,17.6,5.1l0.4,0.3l0.5,0c1.8-0.1,3.6,0,5.4,0.1C96.2,55.2,98,76.4,98,76.7l0,0.3l0,0.4l0.5,0.4
				C104.7,82.7,105.2,84.5,105.2,84.8z"/>
			<path class="st2" d="M141.5,60.7c0.9,7,0.1,8.4-0.1,8.7c-0.1,0-0.5-0.1-1.3-0.8c-3.4-2.9-8-11-8.1-11.1
				c-3.1-5.2-6.7-9.9-10.9-13.9l-3.3-2.4c-2.9,0.3-5,0.3-6.6,0.3c-2.9-0.1-3.8-0.6-4-0.7c0,0-0.1-0.1-0.1-0.1s0-0.1,0.1-0.4
				c0.3-0.6,1.3-1.8,4.1-3.8l-2.3-1.7C93,25.4,77.4,25.9,76.7,26l-0.3,0l-0.3,0.2c-4.3,2.6-6.5,7.5-7.5,11.1c0,0-0.5,1.9-1.5,0.6
				c0,0,0,0,0,0c0,0,0,0,0-0.1c-1.1-1.5-2.3-3.2-2.7-5l-0.1-0.4c0,0,0-0.4-0.6-0.5l-0.4-0.1c-1.9-0.4-4.2-1.1-6.2-1.9
				c-0.1,0-0.2-0.1-0.4-0.1c-0.1,0-0.2-0.1-0.3-0.1c-1.3-0.7,0.8-1.6,1.5-1.9l0.2-0.1l13.4-4.9l0.1-0.1c3.6-2.5,8.1-4.8,13.2-6.7
				c9.5-3.5,20.8-5.2,31.5-2.9l1.1,0.2l0.4-1.1c0.6-1.4,0.8-2.8,0.8-4.2c0-1.2-0.2-2.4-0.4-3.4c-0.4-2.1,1.6-1.5,1.7-1.4
				c1.8,1,3.4,2.1,4.9,3.4c2.7,2.3,4.6,4.8,5.8,7.2c1.5,2.8,2.1,5.3,2.4,7l0.1,0.5l0.4,0.3c1.2,1.1,2.3,2.2,3.4,3.4
				c16.8,19.3,6,33.8,5.3,34.8c0,0,0,0,0,0l-0.4,0.4L141.5,60.7z"/>
			<path class="st2" d="M206.9,61l-0.3,0.3l0,0.4c0,1.4,0,2.9-0.2,4.3c-2.4,23.4-19.3,24.7-19.5,24.7l-0.5,0l-0.3,0.4
				c-4,4.8-5.4,5.2-5.7,5.2c-0.1-0.1-0.2-0.4-0.3-1.3c-0.2-4,2.3-12,2.3-12.1c1.5-5.2,2.3-10.4,2.4-15.6l-0.4-3.6
				c-5.7-5-6.1-6.8-6.1-7.1c0-0.1,0-0.1,0-0.1s0.1-0.1,0.4-0.2c0.6-0.1,2-0.2,5,0.4l-0.3-2.6c-3.9-16.2-13.8-25.9-14.2-26.4
				l-0.2-0.2l-0.3-0.1c-4.3-1.2-8.8,0.4-11.8,1.9c0,0-1.6,0.8-1.3-0.6v-0.1c0,0,0,0,0-0.1c0.2-1.6,0.7-3.5,1.6-4.8l0.2-0.3
				c0,0,0.2-0.2,0-0.7l-0.2-0.3c-0.9-1.5-1.8-3.4-2.5-5.2c0-0.1-0.1-0.2-0.1-0.3c0-0.1-0.1-0.2-0.1-0.3c-0.4-1.3,1.5-0.5,2.1-0.2
				l0.1,0.1l11.4,5.7l0.2,0c0.5,0.1,1,0.2,1.5,0.3l0,0c11,2.8,24.7,10.7,32.1,22.9l0.5,0.9l0.9-0.4c2.5-1,4.1-2.8,5.2-4.4v0
				c1.1-1.5,1.9,0.2,2,0.2c0.4,1.8,0.7,3.5,0.8,5.2C211.4,54,208.6,58.8,206.9,61z"/>
			<linearGradient id="SVGID_1_" gradientUnits="userSpaceOnUse" x1="61.68" y1="41.028" x2="61.68" y2="143.2153">
				<stop  offset="0" style="stop-color:#1A9CB3"/>
				<stop  offset="0.1662" style="stop-color:#1B96AC"/>
				<stop  offset="0.3618" style="stop-color:#1C879C"/>
				<stop  offset="0.5722" style="stop-color:#1B7283"/>
				<stop  offset="0.7914" style="stop-color:#155665"/>
				<stop  offset="1" style="stop-color:#073A48"/>
			</linearGradient>
			<path class="st3" d="M40,195.7c-0.8-5.1-1.2-10.4-1.2-15.8c0-28,10.6-52.9,26.9-68c5.3-4.9,11.2-8.8,17.5-11.5
				c0.7-0.1,1.1,0,1.2,0.1c0,0.2,0,0.7-0.5,2c-1.7,4.1-7,10.3-9.5,13.2c-0.9,1-1.4,1.6-1.4,1.6c-5.4,6-9.9,12.6-13.4,19.6l-1.8,5.2
				c4.4,10.4,3.8,13.2,3.6,13.6c0,0.1,0,0.1,0,0.1s-0.2,0-0.6,0c-0.9-0.2-2.8-1-6.5-3.7l-1.3,3.7c-4.5,21.2,0.2,38.9,1.7,43.6
				c0.2,0.7,0.4,1.1,0.4,1.2l0.2,0.4l0.3,0.3c5.1,4.4,12.2,5.2,17.2,5.1c0,0,2.7-0.1,1.3,1.7c0,0,0,0,0,0.1c0,0,0,0,0,0.1
				c-1.4,2.1-3.2,4.2-5.3,5.5l-0.5,0.3c0,0-0.5,0.2-0.4,1l0,0.5c0.2,2.6,0.3,5.8,0.1,8.7c0,0.1,0,0.3,0,0.5c0,0.2,0,0.3,0,0.5
				c-0.4,2-2.4-0.4-3-1.1l-0.1-0.2l-11.7-15.2l-0.2-0.1c-2.9-2.2-5.8-4.9-8.7-8L40,195.7z"/>
			<linearGradient id="SVGID_2_" gradientUnits="userSpaceOnUse" x1="54.6796" y1="168.5987" x2="54.6796" y2="66.4114">
				<stop  offset="0" style="stop-color:#1A9CB3"/>
				<stop  offset="0.1662" style="stop-color:#1B96AC"/>
				<stop  offset="0.3618" style="stop-color:#1C879C"/>
				<stop  offset="0.5722" style="stop-color:#1B7283"/>
				<stop  offset="0.7914" style="stop-color:#155665"/>
				<stop  offset="1" style="stop-color:#073A48"/>
			</linearGradient>
			<path class="st4" d="M12.3,115.1c-1.9,1.1-4.2,2.3-6.5,3.2c-0.1,0-0.2,0.1-0.4,0.2c-0.1,0-0.2,0.1-0.4,0.1
				c-1.7,0.5-0.6-1.9-0.3-2.6l0.1-0.2l7.1-14.4l0-0.2c0.3-1.4,0.7-2.9,1.1-4.4c3.3-3,6.9-5.8,10.7-8.4c3.3-2.2,6.6-4.2,10-6
				C55.8,71,79.8,69.3,98,77l0,0.4l0.5,0.4c6.1,5,6.6,6.8,6.6,7.1c-0.1,0.1-0.6,0.3-1.7,0.4c-5,0.3-15.1-2.7-15.2-2.8
				c-6.6-1.9-13.2-2.8-19.7-2.8l-4.6,0.6c-6.2,7.2-8.5,7.8-8.9,7.8c-0.1,0-0.1,0-0.1,0s-0.1-0.1-0.2-0.4c-0.2-0.7-0.3-2.5,0.4-6.2
				L52,81.7c-5.7,1.4-10.8,3.4-15.1,5.6C25.7,92.9,19.3,99.5,19,99.9l-0.3,0.3l-0.1,0.4c-1.5,5.4,0.6,11.1,2.5,14.9
				c0,0,1.1,2-0.8,1.7c0,0,0,0-0.1,0h-0.1c-2.1-0.3-4.4-0.9-6.1-2l-0.4-0.3c0,0-0.3-0.3-0.9,0.1L12.3,115.1z"/>
			<linearGradient id="SVGID_3_" gradientUnits="userSpaceOnUse" x1="98.884" y1="127.9017" x2="98.884" y2="25.7144">
				<stop  offset="0" style="stop-color:#1A9CB3"/>
				<stop  offset="0.1662" style="stop-color:#1B96AC"/>
				<stop  offset="0.3617" style="stop-color:#1C879C"/>
				<stop  offset="0.5712" style="stop-color:#1B7283"/>
				<stop  offset="0.6967" style="stop-color:#186373"/>
				<stop  offset="0.8636" style="stop-color:#114D5B"/>
				<stop  offset="1" style="stop-color:#073A48"/>
			</linearGradient>
			<path class="st5" d="M141.4,69.3c-0.1,0-0.5-0.1-1.3-0.8c-3.4-2.9-8-11-8.1-11.1c-3.1-5.2-6.7-9.9-10.9-13.9l-3.3-2.4
				c-2.9,0.3-5,0.3-6.6,0.3c-2.9-0.1-3.8-0.6-4-0.7c0,0-0.1-0.1-0.1-0.1s0-0.1,0.1-0.4c0.3-0.6,1.3-1.8,4.1-3.8l-2.3-1.7
				C93,25.4,77.4,25.9,76.7,26l-0.3,0l-0.3,0.2c-4.3,2.6-6.5,7.5-7.5,11.1c0,0-0.5,1.9-1.5,0.6c0,0,0,0,0,0c0,0,0,0,0-0.1
				c-1.1-1.5-2.3-3.2-2.7-5l-0.1-0.4c0,0,0-0.4-0.6-0.5l-0.4-0.1c-1.9-0.4-4.2-1.1-6.2-1.9c-0.1,0-0.2-0.1-0.4-0.1
				c-0.1,0-0.2-0.1-0.3-0.1c-1.3-0.7,0.8-1.6,1.5-1.9l0.2-0.1l13.4-4.9l0.1-0.1c3.6-2.5,8.1-4.8,13.2-6.7c8.6,1.5,17.4,4.7,25.8,9.5
				c1.8,1.1,3.6,2.2,5.3,3.3C128,37,137,48,141.9,59.6c0,0,0,0,0,0l-0.4,0.4l0.1,0.6C142.4,67.6,141.6,69.1,141.4,69.3z"/>
			<linearGradient id="SVGID_4_" gradientUnits="userSpaceOnUse" x1="172.1626" y1="159.326" x2="172.1626" y2="57.1387">
				<stop  offset="0" style="stop-color:#1A9CB3"/>
				<stop  offset="0.1662" style="stop-color:#1B96AC"/>
				<stop  offset="0.3617" style="stop-color:#1C879C"/>
				<stop  offset="0.5712" style="stop-color:#1B7283"/>
				<stop  offset="0.6967" style="stop-color:#186373"/>
				<stop  offset="0.8636" style="stop-color:#114D5B"/>
				<stop  offset="1" style="stop-color:#073A48"/>
			</linearGradient>
			<path class="st6" d="M187,90.8l-0.5,0l-0.3,0.4c-4,4.8-5.4,5.2-5.7,5.2c-0.1-0.1-0.2-0.4-0.3-1.3c-0.2-4,2.3-12,2.3-12.1
				c1.5-5.2,2.3-10.4,2.4-15.6l-0.4-3.6c-5.7-5-6.1-6.8-6.1-7.1c0-0.1,0-0.1,0-0.1s0.1-0.1,0.4-0.2c0.6-0.1,2-0.2,5,0.4l-0.3-2.6
				c-3.9-16.2-13.8-25.9-14.2-26.4l-0.2-0.2l-0.3-0.1c-4.3-1.2-8.8,0.4-11.8,1.9c0,0-1.6,0.8-1.3-0.6v-0.1c0,0,0,0,0-0.1
				c0.2-1.6,0.7-3.5,1.6-4.8l0.2-0.3c0,0,0.2-0.2,0-0.7l-0.2-0.3c-0.9-1.5-1.8-3.4-2.5-5.2c0-0.1-0.1-0.2-0.1-0.3
				c0-0.1-0.1-0.2-0.1-0.3c-0.4-1.3,1.5-0.5,2.1-0.2l0.1,0.1l11.4,5.7l0.2,0c0.5,0.1,1,0.2,1.5,0.3l0,0c7.6,7.2,13.8,17.2,17.4,29.1
				C191.2,65.6,190.9,79.6,187,90.8z"/>
		</g>
	</g>
</g>
</svg>
